<?xml version="1.0" standalone="no"?>
<!DOCTYPE svg PUBLIC "-//W3C//DTD SVG 20010904//EN"
 "http://www.w3.org/TR/2001/REC-SVG-20010904/DTD/svg10.dtd">
<svg version="1.0" xmlns="http://www.w3.org/2000/svg"
 width="399.000000pt" height="92.000000pt" viewBox="0 0 399.000000 92.000000"
 preserveAspectRatio="xMidYMid meet">

<g transform="translate(0.000000,92.000000) scale(0.100000,-0.100000)"
fill="#000000" stroke="none">
<path d="M10 465 l0 -435 1980 0 1980 0 0 435 0 435 -1980 0 -1980 0 0 -435z
m3940 0 l0 -405 -1960 0 -1960 0 0 405 0 405 1960 0 1960 0 0 -405z"/>
<path d="M60 465 l0 -385 1480 0 1480 0 0 385 0 385 -1480 0 -1480 0 0 -385z
m1284 181 c18 -7 43 -26 55 -42 20 -25 21 -29 7 -32 -9 -2 -30 8 -47 22 -41
35 -100 36 -134 1 -40 -39 -37 -108 6 -147 49 -46 136 -28 152 32 5 18 0 20
-49 20 -41 0 -54 4 -54 15 0 12 15 15 75 15 84 0 85 -1 56 -67 -24 -52 -60
-76 -115 -76 -109 0 -173 117 -116 211 34 55 100 75 164 48z m-934 -126 c0
-109 -2 -130 -15 -130 -13 0 -15 21 -15 130 0 109 2 130 15 130 13 0 15 -21
15 -130z m186 60 c26 -38 50 -70 54 -70 4 0 28 32 54 70 68 103 76 97 76 -60
0 -107 -3 -130 -15 -130 -11 0 -15 20 -17 97 l-3 97 -40 -62 c-22 -34 -47 -62
-56 -62 -9 0 -35 28 -58 63 l-41 62 0 -97 c0 -91 -1 -98 -20 -98 -19 0 -20 7
-20 130 0 123 1 130 20 130 13 0 35 -22 66 -70z m453 -55 c28 -68 51 -127 51
-130 0 -3 -8 -5 -18 -5 -10 0 -22 12 -29 30 -11 29 -14 30 -73 30 -59 0 -62
-1 -73 -30 -7 -18 -19 -30 -29 -30 -10 0 -18 3 -18 6 0 3 23 61 51 130 38 92
56 124 69 124 13 0 30 -32 69 -125z m501 -5 c0 -123 -1 -130 -20 -130 -19 0
-20 7 -20 130 0 123 1 130 20 130 19 0 20 -7 20 -130z m195 45 c85 -125 85
-125 85 -11 0 79 3 96 15 96 13 0 15 -21 15 -130 0 -165 -8 -168 -100 -35 -36
52 -68 95 -72 95 -5 0 -8 -43 -8 -95 0 -78 -3 -95 -15 -95 -13 0 -15 21 -15
130 0 119 2 130 18 130 12 0 40 -31 77 -85z m381 -47 c46 -112 51 -128 35
-128 -11 0 -24 12 -31 30 -12 29 -15 30 -75 30 -60 0 -63 -1 -75 -30 -8 -18
-20 -30 -31 -30 -18 0 -18 2 -1 43 9 23 33 82 52 130 49 122 59 119 126 -45z
m289 107 c33 -32 34 -86 3 -115 -12 -11 -26 -20 -30 -20 -5 0 5 -20 22 -44 35
-52 36 -56 11 -56 -12 0 -30 17 -48 45 -22 35 -34 45 -55 45 -24 0 -28 -4 -28
-29 0 -39 -9 -61 -26 -61 -11 0 -14 26 -14 130 l0 130 70 0 c62 0 74 -3 95
-25z m165 -35 c19 -33 36 -60 40 -60 3 0 20 27 38 60 23 42 39 60 53 60 23 0
21 -4 -37 -101 -27 -45 -34 -67 -34 -108 0 -44 -3 -51 -20 -51 -17 0 -20 7
-20 48 0 38 -9 62 -45 124 -25 43 -45 80 -45 83 0 3 8 5 18 5 12 0 30 -21 52
-60z"/>
<path d="M970 585 c0 -2 -9 -27 -20 -55 l-20 -50 49 0 49 0 -21 55 c-12 30
-25 55 -29 55 -5 0 -8 -2 -8 -5z"/>
<path d="M2032 548 c-12 -29 -22 -57 -22 -61 0 -4 21 -7 46 -7 51 0 50 -1 15
83 l-17 39 -22 -54z"/>
<path d="M2290 570 l0 -50 43 0 c50 0 67 13 67 52 0 33 -24 48 -74 48 l-36 0
0 -50z"/>
<path d="M3100 520 l0 -130 35 0 35 0 0 130 0 130 -35 0 -35 0 0 -130z"/>
<path d="M3230 520 l0 -130 35 0 34 0 3 68 3 67 50 -67 c40 -54 55 -67 78 -68
l27 0 0 130 0 130 -35 0 -34 0 -3 -62 -3 -63 -45 62 c-39 54 -49 62 -77 63
l-33 0 0 -130z"/>
<path d="M3520 520 l0 -130 40 0 40 0 0 50 c0 42 3 50 18 50 12 0 26 -17 42
-50 22 -47 26 -50 62 -50 21 0 38 2 38 5 0 3 -14 32 -30 65 -23 46 -28 64 -20
77 5 10 19 39 30 66 l19 47 -40 0 c-34 0 -41 -4 -49 -27 -16 -46 -26 -58 -49
-61 -19 -3 -21 1 -21 42 l0 46 -40 0 -40 0 0 -130z"/>
</g>
</svg>
